<svg xmlns="http://www.w3.org/2000/svg" xmlns:xlink="http://www.w3.org/1999/xlink" width="100" zoomAndPan="magnify" viewBox="0 0 75 74.999997" height="100" preserveAspectRatio="xMidYMid meet" version="1.0"><defs><clipPath id="58fac60e04"><path d="M 3.75 0 L 71.25 0 C 73.320312 0 75 1.679688 75 3.75 L 75 71.25 C 75 73.320312 73.320312 75 71.25 75 L 3.75 75 C 1.679688 75 0 73.320312 0 71.25 L 0 3.75 C 0 1.679688 1.679688 0 3.75 0 " clip-rule="nonzero"/></clipPath><clipPath id="607551615d"><path d="M 5.644531 19 L 38 19 L 38 56 L 5.644531 56 Z M 5.644531 19 " clip-rule="nonzero"/></clipPath><clipPath id="382123f2f0"><path d="M 33.324219 19.535156 C 34.617188 19.535156 35.671875 19.957031 36.488281 20.804688 C 37.339844 21.648438 37.761719 22.746094 37.761719 24.097656 L 37.761719 51.222656 C 37.761719 52.609375 37.355469 53.726562 36.539062 54.570312 C 35.722656 55.414062 34.667969 55.835938 33.375 55.835938 C 31.84375 55.835938 30.683594 55.332031 29.902344 54.316406 L 14.386719 35.101562 L 14.386719 51.222656 C 14.386719 52.609375 13.996094 53.726562 13.210938 54.570312 C 12.429688 55.414062 11.375 55.835938 10.046875 55.835938 C 8.753906 55.835938 7.699219 55.414062 6.882812 54.570312 C 6.066406 53.726562 5.65625 52.609375 5.65625 51.222656 L 5.65625 24.097656 C 5.65625 22.746094 6.066406 21.648438 6.882812 20.804688 C 7.699219 19.957031 8.753906 19.535156 10.046875 19.535156 C 11.511719 19.535156 12.648438 20.042969 13.46875 21.058594 L 28.984375 40.222656 L 28.984375 24.097656 C 28.984375 22.714844 29.375 21.613281 30.15625 20.804688 C 30.976562 19.957031 32.03125 19.535156 33.324219 19.535156 Z M 33.324219 19.535156 " clip-rule="nonzero"/></clipPath><clipPath id="79db63b8e2"><path d="M 43 30 L 69 30 L 69 56 L 43 56 Z M 43 30 " clip-rule="nonzero"/></clipPath><clipPath id="4eb60ff37a"><path d="M 64.449219 30.082031 C 65.84375 30.082031 66.953125 30.453125 67.769531 31.195312 C 68.585938 31.941406 68.992188 32.953125 68.992188 34.238281 L 68.992188 51.78125 C 68.992188 52.964844 68.566406 53.945312 67.71875 54.722656 C 66.867188 55.464844 65.761719 55.835938 64.398438 55.835938 C 63.175781 55.835938 62.171875 55.515625 61.386719 54.875 C 60.605469 54.199219 60.195312 53.300781 60.164062 52.1875 C 59.378906 53.402344 58.375 54.332031 57.152344 54.976562 C 55.960938 55.617188 54.582031 55.9375 53.015625 55.9375 C 49.785156 55.9375 47.386719 55.058594 45.820312 53.300781 C 44.253906 51.511719 43.472656 48.808594 43.472656 45.191406 L 43.472656 34.238281 C 43.472656 32.953125 43.878906 31.941406 44.695312 31.195312 C 45.511719 30.453125 46.621094 30.082031 48.015625 30.082031 C 49.410156 30.082031 50.515625 30.453125 51.332031 31.195312 C 52.148438 31.941406 52.558594 32.953125 52.558594 34.238281 L 52.558594 45.394531 C 52.558594 47.828125 53.613281 49.042969 55.722656 49.042969 C 56.945312 49.042969 57.949219 48.605469 58.734375 47.726562 C 59.515625 46.847656 59.90625 45.695312 59.90625 44.277344 L 59.90625 34.238281 C 59.90625 32.953125 60.316406 31.941406 61.132812 31.195312 C 61.949219 30.453125 63.054688 30.082031 64.449219 30.082031 Z M 64.449219 30.082031 " clip-rule="nonzero"/></clipPath></defs><g clip-path="url(#58fac60e04)"><path fill="#212529" d="M 0 0 L 74.882812 0 L 74.882812 74.882812 L 0 74.882812 Z M 0 0 " fill-opacity="1" fill-rule="nonzero"/></g><g clip-path="url(#607551615d)"><g clip-path="url(#382123f2f0)"><path fill="#fd377e" d="M 5.65625 19.535156 L 5.65625 55.835938 L 37.761719 55.835938 L 37.761719 19.535156 Z M 5.65625 19.535156 " fill-opacity="1" fill-rule="nonzero"/></g></g><g clip-path="url(#79db63b8e2)"><g clip-path="url(#4eb60ff37a)"><path fill="#fd377e" d="M 43.472656 30.082031 L 43.472656 55.9375 L 68.992188 55.9375 L 68.992188 30.082031 Z M 43.472656 30.082031 " fill-opacity="1" fill-rule="nonzero"/></g></g></svg>