<svg xmlns="http://www.w3.org/2000/svg" xmlns:xlink="http://www.w3.org/1999/xlink" width="1230" zoomAndPan="magnify" viewBox="0 0 922.5 149.999998" height="200" preserveAspectRatio="xMidYMid meet" version="1.0"><defs><g/></defs><g fill="#4f86c6" fill-opacity="1"><g transform="translate(2.800781, 103.209481)"><g><path d="M 30.125 0.84375 C 27.382812 0.84375 25.265625 0.09375 23.765625 -1.40625 C 22.265625 -2.90625 21.515625 -5.054688 21.515625 -7.859375 L 21.515625 -51.921875 L 6.828125 -51.921875 C 2.085938 -51.921875 -0.28125 -54.257812 -0.28125 -58.9375 C -0.28125 -63.625 2.085938 -65.96875 6.828125 -65.96875 L 53.421875 -65.96875 C 58.160156 -65.96875 60.53125 -63.625 60.53125 -58.9375 C 60.53125 -54.257812 58.160156 -51.921875 53.421875 -51.921875 L 38.734375 -51.921875 L 38.734375 -7.859375 C 38.734375 -5.054688 38 -2.90625 36.53125 -1.40625 C 35.070312 0.09375 32.9375 0.84375 30.125 0.84375 Z M 30.125 0.84375 "/></g></g></g><g fill="#4f86c6" fill-opacity="1"><g transform="translate(63.054973, 103.209481)"><g><path d="M 13.375 0.84375 C 7.695312 0.84375 4.859375 -1.960938 4.859375 -7.578125 L 4.859375 -38.546875 C 4.859375 -44.097656 7.570312 -46.875 13 -46.875 C 15.5625 -46.875 17.539062 -46.15625 18.9375 -44.71875 C 20.34375 -43.289062 21.046875 -41.234375 21.046875 -38.546875 L 21.046875 -38.265625 C 22.109375 -40.953125 23.820312 -43.070312 26.1875 -44.625 C 28.5625 -46.1875 31.375 -47 34.625 -47.0625 C 36.425781 -47.125 37.78125 -46.671875 38.6875 -45.703125 C 39.59375 -44.734375 40.078125 -42.941406 40.140625 -40.328125 C 40.140625 -38.078125 39.671875 -36.296875 38.734375 -34.984375 C 37.796875 -33.679688 36.019531 -32.90625 33.40625 -32.65625 L 31.25 -32.46875 C 27.945312 -32.15625 25.546875 -31.234375 24.046875 -29.703125 C 22.546875 -28.171875 21.796875 -25.910156 21.796875 -22.921875 L 21.796875 -7.578125 C 21.796875 -1.960938 18.988281 0.84375 13.375 0.84375 Z M 13.375 0.84375 "/></g></g></g><g fill="#4f86c6" fill-opacity="1"><g transform="translate(103.661057, 103.209481)"><g><path d="M 20.859375 1.03125 C 17.304688 1.03125 14.171875 0.375 11.453125 -0.9375 C 8.742188 -2.25 6.625 -4.039062 5.09375 -6.3125 C 3.570312 -8.59375 2.8125 -11.195312 2.8125 -14.125 C 2.8125 -17.4375 3.679688 -20.070312 5.421875 -22.03125 C 7.171875 -24 9.976562 -25.398438 13.84375 -26.234375 C 17.707031 -27.078125 22.851562 -27.5 29.28125 -27.5 L 32.84375 -27.5 L 32.84375 -28.8125 C 32.84375 -31.0625 32.265625 -32.65625 31.109375 -33.59375 C 29.953125 -34.53125 27.972656 -35 25.171875 -35 C 23.609375 -35 21.90625 -34.828125 20.0625 -34.484375 C 18.226562 -34.140625 16.15625 -33.53125 13.84375 -32.65625 C 11.789062 -31.90625 10.078125 -31.9375 8.703125 -32.75 C 7.328125 -33.5625 6.4375 -34.726562 6.03125 -36.25 C 5.625 -37.78125 5.78125 -39.304688 6.5 -40.828125 C 7.21875 -42.359375 8.609375 -43.5 10.671875 -44.25 C 13.660156 -45.3125 16.414062 -46.046875 18.9375 -46.453125 C 21.46875 -46.859375 23.796875 -47.0625 25.921875 -47.0625 C 33.585938 -47.0625 39.273438 -45.40625 42.984375 -42.09375 C 46.703125 -38.789062 48.5625 -33.585938 48.5625 -26.484375 L 48.5625 -7.578125 C 48.5625 -1.960938 46.003906 0.84375 40.890625 0.84375 C 36.023438 0.84375 33.4375 -1.648438 33.125 -6.640625 C 32.25 -4.273438 30.75 -2.40625 28.625 -1.03125 C 26.507812 0.34375 23.921875 1.03125 20.859375 1.03125 Z M 24.609375 -9.828125 C 26.910156 -9.828125 28.859375 -10.570312 30.453125 -12.0625 C 32.046875 -13.5625 32.84375 -15.53125 32.84375 -17.96875 L 32.84375 -19.640625 L 29.28125 -19.640625 C 25.601562 -19.640625 22.90625 -19.25 21.1875 -18.46875 C 19.476562 -17.695312 18.625 -16.46875 18.625 -14.78125 C 18.625 -13.34375 19.132812 -12.15625 20.15625 -11.21875 C 21.1875 -10.289062 22.671875 -9.828125 24.609375 -9.828125 Z M 24.609375 -9.828125 "/></g></g></g><g fill="#4f86c6" fill-opacity="1"><g transform="translate(156.80451, 103.209481)"><g><path d="M 13.09375 0.84375 C 10.414062 0.84375 8.375 0.125 6.96875 -1.3125 C 5.5625 -2.75 4.859375 -4.835938 4.859375 -7.578125 L 4.859375 -38.546875 C 4.859375 -44.097656 7.570312 -46.875 13 -46.875 C 17.925781 -46.875 20.609375 -44.472656 21.046875 -39.671875 C 22.609375 -42.035156 24.679688 -43.859375 27.265625 -45.140625 C 29.859375 -46.421875 32.742188 -47.0625 35.921875 -47.0625 C 41.410156 -47.0625 45.476562 -45.4375 48.125 -42.1875 C 50.78125 -38.945312 52.109375 -33.960938 52.109375 -27.234375 L 52.109375 -7.578125 C 52.109375 -4.835938 51.390625 -2.75 49.953125 -1.3125 C 48.523438 0.125 46.46875 0.84375 43.78125 0.84375 C 41.101562 0.84375 39.046875 0.125 37.609375 -1.3125 C 36.171875 -2.75 35.453125 -4.835938 35.453125 -7.578125 L 35.453125 -26.578125 C 35.453125 -29.378906 34.96875 -31.375 34 -32.5625 C 33.039062 -33.75 31.625 -34.34375 29.75 -34.34375 C 27.257812 -34.34375 25.265625 -33.546875 23.765625 -31.953125 C 22.265625 -30.359375 21.515625 -28.222656 21.515625 -25.546875 L 21.515625 -7.578125 C 21.515625 -1.960938 18.707031 0.84375 13.09375 0.84375 Z M 13.09375 0.84375 "/></g></g></g><g fill="#4f86c6" fill-opacity="1"><g transform="translate(213.503344, 103.209481)"><g><path d="M 23.203125 1.03125 C 20.398438 1.03125 17.59375 0.8125 14.78125 0.375 C 11.976562 -0.0625 9.421875 -0.78125 7.109375 -1.78125 C 5.171875 -2.53125 3.90625 -3.617188 3.3125 -5.046875 C 2.726562 -6.484375 2.671875 -7.921875 3.140625 -9.359375 C 3.609375 -10.796875 4.460938 -11.882812 5.703125 -12.625 C 6.953125 -13.375 8.453125 -13.4375 10.203125 -12.8125 C 12.753906 -11.882812 15.085938 -11.21875 17.203125 -10.8125 C 19.328125 -10.40625 21.359375 -10.203125 23.296875 -10.203125 C 25.609375 -10.203125 27.257812 -10.523438 28.25 -11.171875 C 29.25 -11.828125 29.75 -12.6875 29.75 -13.75 C 29.75 -14.6875 29.421875 -15.390625 28.765625 -15.859375 C 28.109375 -16.328125 27.191406 -16.6875 26.015625 -16.9375 L 15.625 -18.625 C 11.757812 -19.238281 8.765625 -20.640625 6.640625 -22.828125 C 4.523438 -25.015625 3.46875 -27.851562 3.46875 -31.34375 C 3.46875 -34.582031 4.367188 -37.367188 6.171875 -39.703125 C 7.984375 -42.046875 10.507812 -43.859375 13.75 -45.140625 C 17 -46.421875 20.710938 -47.0625 24.890625 -47.0625 C 27.691406 -47.0625 30.242188 -46.84375 32.546875 -46.40625 C 34.859375 -45.96875 37.109375 -45.25 39.296875 -44.25 C 40.984375 -43.5625 42.054688 -42.5 42.515625 -41.0625 C 42.984375 -39.632812 42.953125 -38.21875 42.421875 -36.8125 C 41.898438 -35.414062 41 -34.359375 39.71875 -33.640625 C 38.4375 -32.921875 36.894531 -32.90625 35.09375 -33.59375 C 33.03125 -34.40625 31.203125 -34.992188 29.609375 -35.359375 C 28.023438 -35.734375 26.546875 -35.921875 25.171875 -35.921875 C 22.609375 -35.921875 20.796875 -35.5625 19.734375 -34.84375 C 18.679688 -34.132812 18.15625 -33.28125 18.15625 -32.28125 C 18.15625 -30.59375 19.304688 -29.5625 21.609375 -29.1875 L 32 -27.40625 C 35.988281 -26.789062 39.054688 -25.4375 41.203125 -23.34375 C 43.359375 -21.25 44.4375 -18.425781 44.4375 -14.875 C 44.4375 -9.820312 42.503906 -5.90625 38.640625 -3.125 C 34.773438 -0.351562 29.628906 1.03125 23.203125 1.03125 Z M 23.203125 1.03125 "/></g></g></g><g fill="#4f86c6" fill-opacity="1"><g transform="translate(259.9103, 103.209481)"><g><path d="M 20.859375 1.03125 C 17.304688 1.03125 14.171875 0.375 11.453125 -0.9375 C 8.742188 -2.25 6.625 -4.039062 5.09375 -6.3125 C 3.570312 -8.59375 2.8125 -11.195312 2.8125 -14.125 C 2.8125 -17.4375 3.679688 -20.070312 5.421875 -22.03125 C 7.171875 -24 9.976562 -25.398438 13.84375 -26.234375 C 17.707031 -27.078125 22.851562 -27.5 29.28125 -27.5 L 32.84375 -27.5 L 32.84375 -28.8125 C 32.84375 -31.0625 32.265625 -32.65625 31.109375 -33.59375 C 29.953125 -34.53125 27.972656 -35 25.171875 -35 C 23.609375 -35 21.90625 -34.828125 20.0625 -34.484375 C 18.226562 -34.140625 16.15625 -33.53125 13.84375 -32.65625 C 11.789062 -31.90625 10.078125 -31.9375 8.703125 -32.75 C 7.328125 -33.5625 6.4375 -34.726562 6.03125 -36.25 C 5.625 -37.78125 5.78125 -39.304688 6.5 -40.828125 C 7.21875 -42.359375 8.609375 -43.5 10.671875 -44.25 C 13.660156 -45.3125 16.414062 -46.046875 18.9375 -46.453125 C 21.46875 -46.859375 23.796875 -47.0625 25.921875 -47.0625 C 33.585938 -47.0625 39.273438 -45.40625 42.984375 -42.09375 C 46.703125 -38.789062 48.5625 -33.585938 48.5625 -26.484375 L 48.5625 -7.578125 C 48.5625 -1.960938 46.003906 0.84375 40.890625 0.84375 C 36.023438 0.84375 33.4375 -1.648438 33.125 -6.640625 C 32.25 -4.273438 30.75 -2.40625 28.625 -1.03125 C 26.507812 0.34375 23.921875 1.03125 20.859375 1.03125 Z M 24.609375 -9.828125 C 26.910156 -9.828125 28.859375 -10.570312 30.453125 -12.0625 C 32.046875 -13.5625 32.84375 -15.53125 32.84375 -17.96875 L 32.84375 -19.640625 L 29.28125 -19.640625 C 25.601562 -19.640625 22.90625 -19.25 21.1875 -18.46875 C 19.476562 -17.695312 18.625 -16.46875 18.625 -14.78125 C 18.625 -13.34375 19.132812 -12.15625 20.15625 -11.21875 C 21.1875 -10.289062 22.671875 -9.828125 24.609375 -9.828125 Z M 24.609375 -9.828125 "/></g></g></g><g fill="#4f86c6" fill-opacity="1"><g transform="translate(313.053753, 103.209481)"><g><path d="M 28.34375 1.03125 C 23.164062 1.03125 18.660156 0.0664062 14.828125 -1.859375 C 10.992188 -3.796875 8.015625 -6.570312 5.890625 -10.1875 C 3.773438 -13.8125 2.71875 -18.117188 2.71875 -23.109375 C 2.71875 -28.097656 3.773438 -32.382812 5.890625 -35.96875 C 8.015625 -39.5625 10.992188 -42.304688 14.828125 -44.203125 C 18.660156 -46.109375 23.164062 -47.0625 28.34375 -47.0625 C 30.15625 -47.0625 32.054688 -46.890625 34.046875 -46.546875 C 36.046875 -46.203125 38.109375 -45.5625 40.234375 -44.625 C 41.671875 -44.0625 42.695312 -43.203125 43.3125 -42.046875 C 43.9375 -40.898438 44.203125 -39.671875 44.109375 -38.359375 C 44.015625 -37.046875 43.640625 -35.859375 42.984375 -34.796875 C 42.335938 -33.742188 41.4375 -33.03125 40.28125 -32.65625 C 39.125 -32.28125 37.828125 -32.4375 36.390625 -33.125 C 34.335938 -34.0625 32.25 -34.53125 30.125 -34.53125 C 26.820312 -34.53125 24.265625 -33.53125 22.453125 -31.53125 C 20.640625 -29.53125 19.734375 -26.722656 19.734375 -23.109375 C 19.734375 -19.429688 20.640625 -16.578125 22.453125 -14.546875 C 24.265625 -12.523438 26.820312 -11.515625 30.125 -11.515625 C 31.125 -11.515625 32.15625 -11.617188 33.21875 -11.828125 C 34.28125 -12.046875 35.335938 -12.40625 36.390625 -12.90625 C 37.890625 -13.59375 39.1875 -13.734375 40.28125 -13.328125 C 41.375 -12.921875 42.242188 -12.203125 42.890625 -11.171875 C 43.546875 -10.148438 43.921875 -8.984375 44.015625 -7.671875 C 44.109375 -6.359375 43.84375 -5.125 43.21875 -3.96875 C 42.601562 -2.820312 41.546875 -1.96875 40.046875 -1.40625 C 37.921875 -0.46875 35.890625 0.171875 33.953125 0.515625 C 32.023438 0.859375 30.15625 1.03125 28.34375 1.03125 Z M 28.34375 1.03125 "/></g></g></g><g fill="#4f86c6" fill-opacity="1"><g transform="translate(358.337975, 103.209481)"><g><path d="M 29 1.03125 C 22.019531 1.03125 16.84375 -0.585938 13.46875 -3.828125 C 10.101562 -7.078125 8.421875 -11.976562 8.421875 -18.53125 L 8.421875 -33.78125 L 5.234375 -33.78125 C 1.054688 -33.78125 -1.03125 -35.835938 -1.03125 -39.953125 C -1.03125 -44.003906 1.054688 -46.03125 5.234375 -46.03125 L 8.421875 -46.03125 L 8.421875 -51.828125 C 8.421875 -54.578125 9.132812 -56.664062 10.5625 -58.09375 C 12 -59.53125 14.0625 -60.25 16.75 -60.25 C 22.300781 -60.25 25.078125 -57.441406 25.078125 -51.828125 L 25.078125 -46.03125 L 32.75 -46.03125 C 36.988281 -46.03125 39.109375 -44.003906 39.109375 -39.953125 C 39.109375 -35.835938 36.988281 -33.78125 32.75 -33.78125 L 25.078125 -33.78125 L 25.078125 -19.09375 C 25.078125 -14.59375 27.351562 -12.34375 31.90625 -12.34375 C 32.78125 -12.34375 33.617188 -12.4375 34.421875 -12.625 C 35.234375 -12.8125 35.984375 -12.90625 36.671875 -12.90625 C 37.671875 -12.96875 38.484375 -12.671875 39.109375 -12.015625 C 39.734375 -11.367188 40.046875 -9.890625 40.046875 -7.578125 C 40.046875 -5.703125 39.765625 -4.125 39.203125 -2.84375 C 38.640625 -1.570312 37.640625 -0.65625 36.203125 -0.09375 C 35.335938 0.21875 34.15625 0.484375 32.65625 0.703125 C 31.15625 0.921875 29.9375 1.03125 29 1.03125 Z M 29 1.03125 "/></g></g></g><g fill="#4f86c6" fill-opacity="1"><g transform="translate(398.195593, 103.209481)"><g><path d="M 13.09375 -53.515625 C 10.164062 -53.515625 7.90625 -54.203125 6.3125 -55.578125 C 4.71875 -56.953125 3.921875 -58.945312 3.921875 -61.5625 C 3.921875 -64.125 4.71875 -66.085938 6.3125 -67.453125 C 7.90625 -68.828125 10.164062 -69.515625 13.09375 -69.515625 C 19.269531 -69.515625 22.359375 -66.863281 22.359375 -61.5625 C 22.359375 -58.945312 21.5625 -56.953125 19.96875 -55.578125 C 18.382812 -54.203125 16.09375 -53.515625 13.09375 -53.515625 Z M 13.09375 0.84375 C 10.414062 0.84375 8.375 0.0625 6.96875 -1.5 C 5.5625 -3.0625 4.859375 -5.304688 4.859375 -8.234375 L 4.859375 -37.796875 C 4.859375 -40.734375 5.5625 -42.976562 6.96875 -44.53125 C 8.375 -46.09375 10.414062 -46.875 13.09375 -46.875 C 15.78125 -46.875 17.851562 -46.09375 19.3125 -44.53125 C 20.78125 -42.976562 21.515625 -40.734375 21.515625 -37.796875 L 21.515625 -8.234375 C 21.515625 -5.304688 20.796875 -3.0625 19.359375 -1.5 C 17.929688 0.0625 15.84375 0.84375 13.09375 0.84375 Z M 13.09375 0.84375 "/></g></g></g><g fill="#4f86c6" fill-opacity="1"><g transform="translate(424.486607, 103.209481)"><g><path d="M 28.15625 1.03125 C 23.039062 1.03125 18.582031 0.0664062 14.78125 -1.859375 C 10.976562 -3.796875 8.015625 -6.570312 5.890625 -10.1875 C 3.773438 -13.8125 2.71875 -18.085938 2.71875 -23.015625 C 2.71875 -28.003906 3.773438 -32.289062 5.890625 -35.875 C 8.015625 -39.46875 10.976562 -42.226562 14.78125 -44.15625 C 18.582031 -46.09375 23.039062 -47.0625 28.15625 -47.0625 C 33.269531 -47.0625 37.726562 -46.09375 41.53125 -44.15625 C 45.34375 -42.226562 48.289062 -39.46875 50.375 -35.875 C 52.46875 -32.289062 53.515625 -28.003906 53.515625 -23.015625 C 53.515625 -18.085938 52.46875 -13.8125 50.375 -10.1875 C 48.289062 -6.570312 45.34375 -3.796875 41.53125 -1.859375 C 37.726562 0.0664062 33.269531 1.03125 28.15625 1.03125 Z M 28.15625 -11.234375 C 30.65625 -11.234375 32.710938 -12.164062 34.328125 -14.03125 C 35.953125 -15.90625 36.765625 -18.898438 36.765625 -23.015625 C 36.765625 -27.191406 35.953125 -30.203125 34.328125 -32.046875 C 32.710938 -33.890625 30.65625 -34.8125 28.15625 -34.8125 C 25.601562 -34.8125 23.515625 -33.890625 21.890625 -32.046875 C 20.273438 -30.203125 19.46875 -27.191406 19.46875 -23.015625 C 19.46875 -18.898438 20.273438 -15.90625 21.890625 -14.03125 C 23.515625 -12.164062 25.601562 -11.234375 28.15625 -11.234375 Z M 28.15625 -11.234375 "/></g></g></g><g fill="#4f86c6" fill-opacity="1"><g transform="translate(480.811173, 103.209481)"><g><path d="M 13.09375 0.84375 C 10.414062 0.84375 8.375 0.125 6.96875 -1.3125 C 5.5625 -2.75 4.859375 -4.835938 4.859375 -7.578125 L 4.859375 -38.546875 C 4.859375 -44.097656 7.570312 -46.875 13 -46.875 C 17.925781 -46.875 20.609375 -44.472656 21.046875 -39.671875 C 22.609375 -42.035156 24.679688 -43.859375 27.265625 -45.140625 C 29.859375 -46.421875 32.742188 -47.0625 35.921875 -47.0625 C 41.410156 -47.0625 45.476562 -45.4375 48.125 -42.1875 C 50.78125 -38.945312 52.109375 -33.960938 52.109375 -27.234375 L 52.109375 -7.578125 C 52.109375 -4.835938 51.390625 -2.75 49.953125 -1.3125 C 48.523438 0.125 46.46875 0.84375 43.78125 0.84375 C 41.101562 0.84375 39.046875 0.125 37.609375 -1.3125 C 36.171875 -2.75 35.453125 -4.835938 35.453125 -7.578125 L 35.453125 -26.578125 C 35.453125 -29.378906 34.96875 -31.375 34 -32.5625 C 33.039062 -33.75 31.625 -34.34375 29.75 -34.34375 C 27.257812 -34.34375 25.265625 -33.546875 23.765625 -31.953125 C 22.265625 -30.359375 21.515625 -28.222656 21.515625 -25.546875 L 21.515625 -7.578125 C 21.515625 -1.960938 18.707031 0.84375 13.09375 0.84375 Z M 13.09375 0.84375 "/></g></g></g><g fill="#212529" fill-opacity="1"><g transform="translate(537.503876, 103.209481)"><g><path d="M 12.8125 0.75 C 9.195312 0.75 7.390625 -1.117188 7.390625 -4.859375 L 7.390625 -61.09375 C 7.390625 -64.832031 9.257812 -66.703125 13 -66.703125 C 14.5625 -66.703125 15.796875 -66.40625 16.703125 -65.8125 C 17.609375 -65.226562 18.4375 -64.21875 19.1875 -62.78125 L 40.796875 -22.828125 L 62.40625 -62.78125 C 63.15625 -64.21875 63.96875 -65.226562 64.84375 -65.8125 C 65.71875 -66.40625 66.929688 -66.703125 68.484375 -66.703125 C 72.109375 -66.703125 73.921875 -64.832031 73.921875 -61.09375 L 73.921875 -4.859375 C 73.921875 -1.117188 72.109375 0.75 68.484375 0.75 C 64.867188 0.75 63.0625 -1.117188 63.0625 -4.859375 L 63.0625 -44.4375 L 45.46875 -12.34375 C 44.84375 -11.289062 44.1875 -10.515625 43.5 -10.015625 C 42.820312 -9.515625 41.890625 -9.265625 40.703125 -9.265625 C 39.515625 -9.265625 38.546875 -9.53125 37.796875 -10.0625 C 37.046875 -10.59375 36.390625 -11.351562 35.828125 -12.34375 L 18.25 -44.25 L 18.25 -4.859375 C 18.25 -1.117188 16.4375 0.75 12.8125 0.75 Z M 12.8125 0.75 "/></g></g></g><g fill="#212529" fill-opacity="1"><g transform="translate(618.716056, 103.209481)"><g><path d="M 21.140625 0.9375 C 17.835938 0.9375 14.890625 0.296875 12.296875 -0.984375 C 9.710938 -2.265625 7.6875 -3.992188 6.21875 -6.171875 C 4.75 -8.359375 4.015625 -10.820312 4.015625 -13.5625 C 4.015625 -16.9375 4.890625 -19.601562 6.640625 -21.5625 C 8.390625 -23.53125 11.226562 -24.953125 15.15625 -25.828125 C 19.082031 -26.703125 24.351562 -27.140625 30.96875 -27.140625 L 34.25 -27.140625 L 34.25 -29.09375 C 34.25 -32.21875 33.5625 -34.460938 32.1875 -35.828125 C 30.8125 -37.203125 28.503906 -37.890625 25.265625 -37.890625 C 23.453125 -37.890625 21.5 -37.671875 19.40625 -37.234375 C 17.320312 -36.796875 15.125 -36.050781 12.8125 -35 C 11.320312 -34.3125 10.078125 -34.226562 9.078125 -34.75 C 8.078125 -35.28125 7.40625 -36.125 7.0625 -37.28125 C 6.71875 -38.4375 6.78125 -39.609375 7.25 -40.796875 C 7.71875 -41.984375 8.671875 -42.851562 10.109375 -43.40625 C 12.972656 -44.59375 15.726562 -45.4375 18.375 -45.9375 C 21.03125 -46.4375 23.453125 -46.6875 25.640625 -46.6875 C 32.304688 -46.6875 37.257812 -45.140625 40.5 -42.046875 C 43.75 -38.960938 45.375 -34.175781 45.375 -27.6875 L 45.375 -5.234375 C 45.375 -1.242188 43.566406 0.75 39.953125 0.75 C 36.273438 0.75 34.4375 -1.242188 34.4375 -5.234375 L 34.4375 -7.296875 C 33.375 -4.742188 31.6875 -2.734375 29.375 -1.265625 C 27.070312 0.203125 24.328125 0.9375 21.140625 0.9375 Z M 23.578125 -7.109375 C 26.628906 -7.109375 29.171875 -8.164062 31.203125 -10.28125 C 33.234375 -12.40625 34.25 -15.09375 34.25 -18.34375 L 34.25 -20.390625 L 31.0625 -20.390625 C 25.195312 -20.390625 21.125 -19.9375 18.84375 -19.03125 C 16.570312 -18.132812 15.4375 -16.5 15.4375 -14.125 C 15.4375 -12.070312 16.148438 -10.390625 17.578125 -9.078125 C 19.015625 -7.765625 21.015625 -7.109375 23.578125 -7.109375 Z M 23.578125 -7.109375 "/></g></g></g><g fill="#212529" fill-opacity="1"><g transform="translate(669.894695, 103.209481)"><g><path d="M 11.875 0.75 C 8.007812 0.75 6.078125 -1.242188 6.078125 -5.234375 L 6.078125 -40.609375 C 6.078125 -44.535156 7.976562 -46.5 11.78125 -46.5 C 15.59375 -46.5 17.5 -44.535156 17.5 -40.609375 L 17.5 -38.640625 C 19.050781 -41.265625 21.148438 -43.257812 23.796875 -44.625 C 26.453125 -46 29.4375 -46.6875 32.75 -46.6875 C 43.539062 -46.6875 48.9375 -40.414062 48.9375 -27.875 L 48.9375 -5.234375 C 48.9375 -1.242188 47 0.75 43.125 0.75 C 39.195312 0.75 37.234375 -1.242188 37.234375 -5.234375 L 37.234375 -27.3125 C 37.234375 -30.875 36.5625 -33.460938 35.21875 -35.078125 C 33.882812 -36.703125 31.8125 -37.515625 29 -37.515625 C 25.570312 -37.515625 22.84375 -36.4375 20.8125 -34.28125 C 18.789062 -32.132812 17.78125 -29.285156 17.78125 -25.734375 L 17.78125 -5.234375 C 17.78125 -1.242188 15.8125 0.75 11.875 0.75 Z M 11.875 0.75 "/></g></g></g><g fill="#212529" fill-opacity="1"><g transform="translate(724.628704, 103.209481)"><g><path d="M 21.140625 0.9375 C 17.835938 0.9375 14.890625 0.296875 12.296875 -0.984375 C 9.710938 -2.265625 7.6875 -3.992188 6.21875 -6.171875 C 4.75 -8.359375 4.015625 -10.820312 4.015625 -13.5625 C 4.015625 -16.9375 4.890625 -19.601562 6.640625 -21.5625 C 8.390625 -23.53125 11.226562 -24.953125 15.15625 -25.828125 C 19.082031 -26.703125 24.351562 -27.140625 30.96875 -27.140625 L 34.25 -27.140625 L 34.25 -29.09375 C 34.25 -32.21875 33.5625 -34.460938 32.1875 -35.828125 C 30.8125 -37.203125 28.503906 -37.890625 25.265625 -37.890625 C 23.453125 -37.890625 21.5 -37.671875 19.40625 -37.234375 C 17.320312 -36.796875 15.125 -36.050781 12.8125 -35 C 11.320312 -34.3125 10.078125 -34.226562 9.078125 -34.75 C 8.078125 -35.28125 7.40625 -36.125 7.0625 -37.28125 C 6.71875 -38.4375 6.78125 -39.609375 7.25 -40.796875 C 7.71875 -41.984375 8.671875 -42.851562 10.109375 -43.40625 C 12.972656 -44.59375 15.726562 -45.4375 18.375 -45.9375 C 21.03125 -46.4375 23.453125 -46.6875 25.640625 -46.6875 C 32.304688 -46.6875 37.257812 -45.140625 40.5 -42.046875 C 43.75 -38.960938 45.375 -34.175781 45.375 -27.6875 L 45.375 -5.234375 C 45.375 -1.242188 43.566406 0.75 39.953125 0.75 C 36.273438 0.75 34.4375 -1.242188 34.4375 -5.234375 L 34.4375 -7.296875 C 33.375 -4.742188 31.6875 -2.734375 29.375 -1.265625 C 27.070312 0.203125 24.328125 0.9375 21.140625 0.9375 Z M 23.578125 -7.109375 C 26.628906 -7.109375 29.171875 -8.164062 31.203125 -10.28125 C 33.234375 -12.40625 34.25 -15.09375 34.25 -18.34375 L 34.25 -20.390625 L 31.0625 -20.390625 C 25.195312 -20.390625 21.125 -19.9375 18.84375 -19.03125 C 16.570312 -18.132812 15.4375 -16.5 15.4375 -14.125 C 15.4375 -12.070312 16.148438 -10.390625 17.578125 -9.078125 C 19.015625 -7.765625 21.015625 -7.109375 23.578125 -7.109375 Z M 23.578125 -7.109375 "/></g></g></g><g fill="#212529" fill-opacity="1"><g transform="translate(775.807343, 103.209481)"><g><path d="M 27.40625 17.78125 C 24.039062 17.78125 20.78125 17.46875 17.625 16.84375 C 14.476562 16.21875 11.628906 15.25 9.078125 13.9375 C 7.578125 13.1875 6.6875 12.234375 6.40625 11.078125 C 6.125 9.929688 6.234375 8.828125 6.734375 7.765625 C 7.234375 6.703125 8 5.9375 9.03125 5.46875 C 10.0625 5 11.164062 5.046875 12.34375 5.609375 C 15.09375 6.984375 17.695312 7.875 20.15625 8.28125 C 22.625 8.6875 24.734375 8.890625 26.484375 8.890625 C 34.835938 8.890625 39.015625 4.863281 39.015625 -3.1875 L 39.015625 -9.453125 C 37.703125 -6.890625 35.6875 -4.859375 32.96875 -3.359375 C 30.257812 -1.867188 27.253906 -1.125 23.953125 -1.125 C 19.835938 -1.125 16.25 -2.070312 13.1875 -3.96875 C 10.132812 -5.875 7.765625 -8.539062 6.078125 -11.96875 C 4.398438 -15.40625 3.5625 -19.398438 3.5625 -23.953125 C 3.5625 -28.503906 4.398438 -32.476562 6.078125 -35.875 C 7.765625 -39.28125 10.132812 -41.929688 13.1875 -43.828125 C 16.25 -45.734375 19.835938 -46.6875 23.953125 -46.6875 C 27.253906 -46.6875 30.242188 -45.96875 32.921875 -44.53125 C 35.609375 -43.101562 37.578125 -41.140625 38.828125 -38.640625 L 38.828125 -40.609375 C 38.828125 -42.535156 39.34375 -44 40.375 -45 C 41.40625 -46 42.820312 -46.5 44.625 -46.5 C 48.5 -46.5 50.4375 -44.535156 50.4375 -40.609375 L 50.4375 -4.578125 C 50.4375 2.835938 48.46875 8.414062 44.53125 12.15625 C 40.601562 15.90625 34.894531 17.78125 27.40625 17.78125 Z M 27.140625 -10.015625 C 30.753906 -10.015625 33.617188 -11.257812 35.734375 -13.75 C 37.859375 -16.25 38.921875 -19.648438 38.921875 -23.953125 C 38.921875 -28.253906 37.859375 -31.632812 35.734375 -34.09375 C 33.617188 -36.5625 30.753906 -37.796875 27.140625 -37.796875 C 23.515625 -37.796875 20.640625 -36.5625 18.515625 -34.09375 C 16.398438 -31.632812 15.34375 -28.253906 15.34375 -23.953125 C 15.34375 -19.648438 16.398438 -16.25 18.515625 -13.75 C 20.640625 -11.257812 23.515625 -10.015625 27.140625 -10.015625 Z M 27.140625 -10.015625 "/></g></g></g><g fill="#212529" fill-opacity="1"><g transform="translate(832.319043, 103.209481)"><g><path d="M 28.625 0.9375 C 23.445312 0.9375 18.988281 -0.0234375 15.25 -1.953125 C 11.507812 -3.890625 8.625 -6.632812 6.59375 -10.1875 C 4.570312 -13.75 3.5625 -17.960938 3.5625 -22.828125 C 3.5625 -27.566406 4.539062 -31.710938 6.5 -35.265625 C 8.46875 -38.828125 11.179688 -41.617188 14.640625 -43.640625 C 18.097656 -45.671875 22.046875 -46.6875 26.484375 -46.6875 C 32.960938 -46.6875 38.085938 -44.628906 41.859375 -40.515625 C 45.640625 -36.398438 47.53125 -30.785156 47.53125 -23.671875 C 47.53125 -21.359375 46.03125 -20.203125 43.03125 -20.203125 L 14.78125 -20.203125 C 15.65625 -12.035156 20.332031 -7.953125 28.8125 -7.953125 C 30.4375 -7.953125 32.257812 -8.15625 34.28125 -8.5625 C 36.3125 -8.96875 38.234375 -9.671875 40.046875 -10.671875 C 41.671875 -11.597656 43.039062 -11.890625 44.15625 -11.546875 C 45.28125 -11.210938 46.078125 -10.546875 46.546875 -9.546875 C 47.015625 -8.546875 47.078125 -7.4375 46.734375 -6.21875 C 46.390625 -5 45.5 -3.957031 44.0625 -3.09375 C 41.882812 -1.71875 39.375 -0.703125 36.53125 -0.046875 C 33.695312 0.609375 31.0625 0.9375 28.625 0.9375 Z M 26.953125 -38.734375 C 23.515625 -38.734375 20.734375 -37.671875 18.609375 -35.546875 C 16.492188 -33.429688 15.21875 -30.566406 14.78125 -26.953125 L 37.796875 -26.953125 C 37.546875 -30.753906 36.5 -33.664062 34.65625 -35.6875 C 32.820312 -37.71875 30.253906 -38.734375 26.953125 -38.734375 Z M 26.953125 -38.734375 "/></g></g></g><g fill="#212529" fill-opacity="1"><g transform="translate(883.029871, 103.209481)"><g><path d="M 12.0625 0.75 C 8.070312 0.75 6.078125 -1.242188 6.078125 -5.234375 L 6.078125 -40.609375 C 6.078125 -44.535156 7.976562 -46.5 11.78125 -46.5 C 15.59375 -46.5 17.5 -44.535156 17.5 -40.609375 L 17.5 -37.703125 C 19.738281 -43.066406 24.539062 -46.0625 31.90625 -46.6875 C 34.582031 -47 36.078125 -45.472656 36.390625 -42.109375 C 36.703125 -38.796875 35.082031 -36.953125 31.53125 -36.578125 L 29.46875 -36.390625 C 21.800781 -35.640625 17.96875 -31.710938 17.96875 -24.609375 L 17.96875 -5.234375 C 17.96875 -1.242188 16 0.75 12.0625 0.75 Z M 12.0625 0.75 "/></g></g></g></svg>